<svg width="300" height="300" viewBox="0 0 300 300" fill="none" xmlns="http://www.w3.org/2000/svg">
<path d="M175.315 295.016C167.443 304.667 151.482 299.379 151.292 287.056L148.519 106.809H273.004C295.552 106.809 308.127 132.164 294.107 149.357L175.315 295.016Z" fill="url(#paint0_linear_58_92)"/>
<path d="M175.315 295.016C167.443 304.667 151.482 299.379 151.292 287.056L148.519 106.809H273.004C295.552 106.809 308.127 132.164 294.107 149.357L175.315 295.016Z" fill="url(#paint1_linear_58_92)" fill-opacity="0.2"/>
<path d="M124.686 4.98474C132.558 -4.66768 148.519 0.621149 148.709 12.9448L149.924 193.191H26.9964C4.44794 193.191 -8.12772 167.836 5.89355 150.643L124.686 4.98474Z" fill="url(#paint2_linear_58_92)"/>
<defs>
<linearGradient id="paint0_linear_58_92" x1="180.12" y1="146.775" x2="250.919" y2="177.273" gradientUnits="userSpaceOnUse">
<stop stop-color="#148EFF"/>
<stop offset="1" stop-color="#0F78FF"/>
</linearGradient>
<linearGradient id="paint1_linear_58_92" x1="151.535" y1="81.3887" x2="195.474" y2="166.345" gradientUnits="userSpaceOnUse">
<stop stop-color="#0F78FF"/>
<stop offset="1" stop-opacity="0"/>
</linearGradient>
<linearGradient id="paint2_linear_58_92" x1="91" y1="129.5" x2="150" y2="357.5" gradientUnits="userSpaceOnUse">
<stop stop-color="#0F78FF"/>
<stop offset="1" stop-opacity="0"/>
</linearGradient>
</defs>
</svg>
