<svg xmlns="http://www.w3.org/2000/svg" xmlns:xlink="http://www.w3.org/1999/xlink" fill="none" version="1.1" width="221" height="215" viewBox="0 0 221 215"><defs><clipPath id="master_svg0_14_20134"><rect x="0" y="0" width="221" height="215" rx="0"/></clipPath><linearGradient x1="0.06333331763744354" y1="0.9254969358444214" x2="0.9333332777023315" y2="0.055481478571891785" id="master_svg1_14_20543"><stop offset="0%" stop-color="#0A60FF" stop-opacity="1"/><stop offset="100%" stop-color="#00DC82" stop-opacity="1"/></linearGradient></defs><g style="mix-blend-mode:passthrough" clip-path="url(#master_svg0_14_20134)"><g style="mix-blend-mode:passthrough"><path d="M173.325,0.0000139888C160.703,-0.00951919,148.592,4.85386,139.651,13.5226C130.711,22.1913,125.671,33.9569,125.638,46.2371C125.638,46.2371,125.638,97.5025,125.638,97.5025C120.727,97.825,115.706,98.0282,110.5,98.0282C105.294,98.0282,100.297,98.2311,95.3615,98.5177C95.3615,98.5177,95.3615,46.2371,95.3615,46.2371C95.1606,34.0634,90.0488,22.4547,81.1288,13.9149C72.2087,5.37524,60.1957,0.589113,47.6807,0.589113C35.1658,0.589113,23.1527,5.37524,14.2326,13.9149C5.31261,22.4547,0.200804,34.0634,0,46.2371C0,46.2371,0,168.763,0,168.763C0.200804,180.937,5.31261,192.545,14.2326,201.085C23.1527,209.625,35.1658,214.411,47.6807,214.411C60.1957,214.411,72.2087,209.625,81.1288,201.085C90.0488,192.545,95.1606,180.937,95.3615,168.763C95.3615,168.763,95.3615,117.498,95.3615,117.498C100.273,117.175,105.294,116.972,110.5,116.972C115.706,116.972,120.703,116.769,125.638,116.482C125.638,116.482,125.638,168.763,125.638,168.763C125.839,180.937,130.951,192.545,139.871,201.085C148.791,209.625,160.804,214.411,173.319,214.411C185.834,214.411,197.847,209.625,206.767,201.085C215.687,192.545,220.799,180.937,221,168.763C221,168.763,221,46.2371,221,46.2371C220.968,33.9589,215.929,22.1952,206.992,13.5268C198.054,4.85843,185.946,-0.00635399,173.325,0.0000139888C173.325,0.0000139888,173.325,0.0000139888,173.325,0.0000139888C173.325,0.0000139888,173.325,0.0000139888,173.325,0.0000139888ZM47.6747,18.9439C55.1241,18.9407,62.2708,21.8125,67.5463,26.9293C72.8218,32.046,75.7956,38.9896,75.8154,46.2371C75.8154,46.2371,75.8154,100.525,75.8154,100.525C61.8649,102.491,48.2423,106.238,35.2987,111.669C29.6905,114.063,24.4113,117.129,19.583,120.794C19.583,120.794,19.583,46.2371,19.583,46.2371C19.6025,38.998,22.5696,32.0615,27.8346,26.9461C33.0996,21.8308,40.2337,18.9534,47.6747,18.9439C47.6747,18.9439,47.6747,18.9439,47.6747,18.9439C47.6747,18.9439,47.6747,18.9439,47.6747,18.9439ZM75.8154,168.763C75.8154,176.024,72.8503,182.987,67.5731,188.121C62.2955,193.255,55.1378,196.14,47.6747,196.14C40.2113,196.14,33.0536,193.255,27.7762,188.121C22.4988,182.987,19.534,176.024,19.534,168.763C19.534,168.763,19.534,156.472,19.534,156.472C19.534,145.615,28.374,135.331,43.1931,128.928C53.635,124.546,64.5913,121.429,75.8154,119.648C75.8154,119.648,75.8154,168.763,75.8154,168.763C75.8154,168.763,75.8154,168.763,75.8154,168.763C75.8154,168.763,75.8154,168.763,75.8154,168.763ZM173.325,196.056C165.876,196.059,158.729,193.188,153.454,188.071C148.178,182.954,145.204,176.01,145.185,168.763C145.185,168.763,145.185,114.476,145.185,114.476C159.135,112.509,172.758,108.762,185.701,103.331C191.309,100.937,196.589,97.8714,201.417,94.2059C201.417,94.2059,201.417,168.763,201.417,168.763C201.398,176.002,198.431,182.938,193.165,188.054C187.9,193.169,180.766,196.047,173.325,196.056C173.325,196.056,173.325,196.056,173.325,196.056C173.325,196.056,173.325,196.056,173.325,196.056ZM177.807,86C167.365,90.3826,156.409,93.4998,145.185,95.2809C145.185,95.2809,145.185,46.2371,145.185,46.2371C145.185,38.9761,148.15,32.0129,153.427,26.8787C158.704,21.7446,165.862,18.8603,173.325,18.8603C180.789,18.8603,187.946,21.7446,193.224,26.8787C198.501,32.0129,201.466,38.9761,201.466,46.2371C201.466,46.2371,201.466,58.5277,201.466,58.5277C201.466,69.3375,192.626,79.6216,177.807,86C177.807,86,177.807,86,177.807,86Z" fill="url(#master_svg1_14_20543)" fill-opacity="1"/></g></g></svg>
