<svg width="484" height="50" viewBox="0 0 484 50" fill="none" xmlns="http://www.w3.org/2000/svg">
<path d="M72.0419 8.88C76.2019 8.88 79.5219 10.12 81.9619 12.64C84.2019 14.92 85.3219 17.76 85.3219 21.2C85.3219 24.08 84.4019 26.64 82.6419 28.96C80.8819 31.16 78.9619 32.28 76.8819 32.28C75.2019 32.28 74.2819 31.4 74.1219 29.64C72.7619 31.44 71.0819 32.36 69.0819 32.36C67.4019 32.36 66.0419 31.76 65.0019 30.64C63.9619 29.52 63.4419 28.08 63.4419 26.36C63.4419 23.4 64.3219 20.8 66.1619 18.64C67.9219 16.48 69.9619 15.44 72.3619 15.44C74.2819 15.44 75.5619 16.44 76.2019 18.44L76.8019 16.2H79.4019L76.5619 26.64C76.2419 27.8 76.0819 28.6 76.0819 29.08C76.0819 29.72 76.4419 30.08 77.2019 30.08C78.4419 30.08 79.6819 29.28 80.9219 27.72C82.3619 25.88 83.0819 23.72 83.0819 21.24C83.0819 18.4 82.1219 16.04 80.2019 14.16C78.1219 12.12 75.3219 11.12 71.8819 11.12C68.2019 11.12 65.1619 12.32 62.7619 14.76C60.4019 17.16 59.2419 20.24 59.2419 23.92C59.2419 27.96 60.4019 31.08 62.8019 33.28C65.0419 35.36 68.1219 36.44 72.0419 36.44C74.8419 36.44 77.3219 35.92 79.4019 34.92C81.2419 34 82.7219 32.76 83.8419 31.16H86.6419C85.2419 33.56 83.2419 35.4 80.6019 36.68C78.0419 37.92 75.2019 38.56 72.0419 38.56C67.2419 38.56 63.4819 37.24 60.7219 34.6C57.8819 31.88 56.4819 28.32 56.4819 23.84C56.4819 19.64 57.8819 16.16 60.7219 13.36C63.6819 10.36 67.4419 8.88 72.0419 8.88ZM72.8019 17.96C71.0819 17.96 69.5619 18.76 68.2819 20.44C66.9219 22.12 66.2419 24.12 66.2419 26.48C66.2419 27.56 66.4819 28.4 67.0019 29.04C67.5219 29.68 68.2819 30 69.2819 30C70.2819 30 71.2819 29.6 72.2419 28.8C73.2019 28 73.8419 27.04 74.1619 26L75.0419 22.72C75.2819 21.68 75.4419 21.04 75.4419 20.8C75.4419 20.08 75.2019 19.44 74.7619 18.92C74.2419 18.28 73.6019 17.96 72.8019 17.96ZM91.2178 8.88H94.4178V26.92L104.778 17.32H109.018L99.8978 25.64L109.898 38H105.778L97.6978 27.72L94.4178 30.68V38H91.2178V8.88ZM121.47 16.76C122.59 16.76 123.55 16.92 124.31 17.24V20.44C123.27 20.12 122.23 20 121.23 20C119.63 20 118.27 20.68 117.19 22.12C116.07 23.48 115.55 25.12 115.55 27.04V38H112.39V17.32H115.55V20.92C116.11 19.72 116.83 18.76 117.71 18.08C118.79 17.2 120.03 16.76 121.47 16.76ZM129.639 9.52C130.319 9.52 130.879 9.72 131.359 10.2C131.839 10.6 132.079 11.16 132.079 11.88C132.079 12.56 131.839 13.12 131.359 13.6C130.879 14.04 130.319 14.28 129.639 14.28C128.959 14.28 128.399 14.04 127.919 13.6C127.439 13.12 127.239 12.56 127.239 11.88C127.239 11.16 127.439 10.6 127.919 10.2C128.399 9.72 128.959 9.52 129.639 9.52ZM128.039 17.32H131.239V38H128.039V17.32ZM144.553 16.76C149.673 16.76 152.473 18.88 153.033 23.2H149.913C149.633 21.92 149.113 20.96 148.313 20.4C147.433 19.76 146.153 19.44 144.513 19.44C143.073 19.44 141.953 19.68 141.153 20.24C140.273 20.76 139.833 21.48 139.833 22.4C139.833 23.28 140.393 24.04 141.593 24.64C142.353 25 143.793 25.44 145.873 26C148.353 26.6 150.113 27.24 151.193 27.92C152.833 28.96 153.673 30.36 153.673 32.16C153.673 36.4 150.753 38.56 144.913 38.56C139.473 38.56 136.513 36.16 136.033 31.4H139.153C139.393 33.04 139.993 34.2 140.873 34.92C141.753 35.56 143.073 35.88 144.833 35.88C148.513 35.88 150.393 34.68 150.393 32.36C150.393 31.2 149.713 30.32 148.433 29.68C147.753 29.36 146.273 28.92 144.033 28.36C141.593 27.76 139.873 27.16 138.913 26.52C137.313 25.56 136.553 24.24 136.553 22.48C136.553 20.72 137.313 19.36 138.873 18.32C140.313 17.28 142.233 16.76 144.553 16.76ZM156.349 17.32H172.789V19.56L160.109 35.32H173.429V38H155.949V35.68L168.589 20H156.349V17.32ZM176.921 17.32H180.121V29.96C180.121 31.92 180.521 33.4 181.361 34.36C182.201 35.32 183.561 35.84 185.441 35.84C186.801 35.84 188.041 35.28 189.121 34.24C190.241 33.12 190.921 31.68 191.161 29.92V17.32H194.361V38H191.161V34.8C189.481 37.28 187.241 38.56 184.441 38.56C179.401 38.56 176.921 35.72 176.921 30.12V17.32ZM212.504 5.2H215.344L201.184 42H198.304L212.504 5.2ZM219.304 8.88H222.504V20.72C223.224 19.4 224.184 18.4 225.384 17.72C226.504 17.08 227.744 16.76 229.144 16.76C231.544 16.76 233.424 17.44 234.704 18.88C235.984 20.28 236.624 22.32 236.624 24.96V38H233.424V25.44C233.424 23.52 232.944 22.04 232.064 21C231.104 19.96 229.784 19.44 228.064 19.44C226.464 19.44 225.144 20.08 224.104 21.36C223.024 22.64 222.504 24.28 222.504 26.2V38H219.304V8.88ZM250.77 16.76C253.85 16.76 256.33 17.8 258.17 19.96C259.93 22 260.81 24.56 260.81 27.68C260.81 30.76 259.93 33.32 258.21 35.32C256.33 37.48 253.85 38.56 250.77 38.56C247.65 38.56 245.21 37.48 243.37 35.32C241.61 33.32 240.73 30.76 240.73 27.68C240.73 24.56 241.61 22 243.37 19.96C245.21 17.8 247.65 16.76 250.77 16.76ZM250.77 19.44C248.57 19.44 246.85 20.28 245.65 21.96C244.53 23.48 244.01 25.36 244.01 27.68C244.01 29.96 244.53 31.84 245.65 33.36C246.85 35.04 248.57 35.88 250.77 35.88C252.93 35.88 254.65 35.04 255.93 33.36C257.01 31.84 257.57 29.92 257.57 27.68C257.57 25.36 257.01 23.48 255.93 21.96C254.65 20.28 252.93 19.44 250.77 19.44ZM274.208 16.76C277.288 16.76 279.768 17.8 281.608 19.96C283.368 22 284.248 24.56 284.248 27.68C284.248 30.76 283.368 33.32 281.648 35.32C279.768 37.48 277.288 38.56 274.208 38.56C271.088 38.56 268.648 37.48 266.808 35.32C265.048 33.32 264.168 30.76 264.168 27.68C264.168 24.56 265.048 22 266.808 19.96C268.648 17.8 271.088 16.76 274.208 16.76ZM274.208 19.44C272.008 19.44 270.288 20.28 269.088 21.96C267.968 23.48 267.448 25.36 267.448 27.68C267.448 29.96 267.968 31.84 269.088 33.36C270.288 35.04 272.008 35.88 274.208 35.88C276.368 35.88 278.088 35.04 279.368 33.36C280.448 31.84 281.008 29.92 281.008 27.68C281.008 25.36 280.448 23.48 279.368 21.96C278.088 20.28 276.368 19.44 274.208 19.44ZM288.405 8.88H291.605V26.92L301.965 17.32H306.205L297.085 25.64L307.085 38H302.965L294.885 27.72L291.605 30.68V38H288.405V8.88ZM316.897 16.76C322.017 16.76 324.817 18.88 325.377 23.2H322.257C321.977 21.92 321.457 20.96 320.657 20.4C319.777 19.76 318.497 19.44 316.857 19.44C315.417 19.44 314.297 19.68 313.497 20.24C312.617 20.76 312.177 21.48 312.177 22.4C312.177 23.28 312.737 24.04 313.937 24.64C314.697 25 316.137 25.44 318.217 26C320.697 26.6 322.457 27.24 323.537 27.92C325.177 28.96 326.017 30.36 326.017 32.16C326.017 36.4 323.097 38.56 317.257 38.56C311.817 38.56 308.857 36.16 308.377 31.4H311.497C311.737 33.04 312.337 34.2 313.217 34.92C314.097 35.56 315.417 35.88 317.177 35.88C320.857 35.88 322.737 34.68 322.737 32.36C322.737 31.2 322.057 30.32 320.777 29.68C320.097 29.36 318.617 28.92 316.377 28.36C313.937 27.76 312.217 27.16 311.257 26.52C309.657 25.56 308.897 24.24 308.897 22.48C308.897 20.72 309.657 19.36 311.217 18.32C312.657 17.28 314.577 16.76 316.897 16.76Z" fill="white"/>
<path d="M28.1285 49.1693C27.0002 50.7778 24.7125 49.8965 24.6853 47.8426L24.2877 17.8016H42.1308C45.3626 17.8016 47.1651 22.0274 45.1555 24.8928L28.1285 49.1693Z" fill="url(#paint0_linear_30_51)"/>
<path d="M28.1285 49.1693C27.0002 50.7778 24.7125 49.8965 24.6853 47.8426L24.2877 17.8016H42.1308C45.3626 17.8016 47.1651 22.0274 45.1555 24.8928L28.1285 49.1693Z" fill="url(#paint1_linear_30_51)" fill-opacity="0.2"/>
<path d="M20.8717 0.83079C22 -0.777947 24.2878 0.103525 24.315 2.15747L24.4892 32.1984H6.86949C3.63754 32.1984 1.83502 27.9726 3.84474 25.1072L20.8717 0.83079Z" fill="#0F78FF"/>
<defs>
<linearGradient id="paint0_linear_30_51" x1="28.8173" y1="24.4624" x2="39.3964" y2="28.3817" gradientUnits="userSpaceOnUse">
<stop stop-color="#148EFF"/>
<stop offset="1" stop-color="#0F78FF"/>
</linearGradient>
<linearGradient id="paint1_linear_30_51" x1="24.72" y1="13.5648" x2="32.6463" y2="26.7449" gradientUnits="userSpaceOnUse">
<stop stop-color="#0F78FF"/>
<stop offset="1" stop-opacity="0"/>
</linearGradient>
</defs>
</svg>
